Coordinates
version=1
nRows=6
nColumns=34
inDegrees=yes

Units are S.I. units (second, meters, Newtons, ...)
If the header above contains a line with 'inDegrees', this indicates whether rotational values are in degrees (yes) or radians (no).

endheader
time	pelvis_tilt	pelvis_list	pelvis_rotation	pelvis_tx	pelvis_ty	pelvis_tz	hip_flexion_r	hip_adduction_r	hip_rotation_r	knee_angle_r	ankle_angle_r	subtalar_angle_r	mtp_angle_r	hip_flexion_l	hip_adduction_l	hip_rotation_l	knee_angle_l	ankle_angle_l	subtalar_angle_l	mtp_angle_l	lumbar_extension	lumbar_bending	lumbar_rotation	arm_flex_r	arm_add_r	arm_rot_r	elbow_flex_r	pro_sup_r	arm_flex_l	arm_add_l	arm_rot_l	elbow_flex_l	pro_sup_l
      4.51666670	     -4.10783881	     -0.21885776	      2.66845839	      1.78692343	      0.91840857	     -0.05486778	      4.04726560	     -7.64468034	    -18.18537005	     20.04233045	      3.88402504	     -4.99331297	      0.00000000	      5.79274088	     -5.77211225	     -6.75913495	     15.68232264	      4.72702521	     10.29334010	      0.00000000	      1.27015189	     -6.75615156	      7.66572637	    121.97230472	     -3.96990587	      7.33255165	     47.94422580	    103.95209809	    130.61843932	     10.30291348	     24.74554580	     66.16809100	     94.63299266
      4.53333330	     -4.83986765	     -0.23981258	      3.01405179	      1.78912562	      0.92598839	     -0.05538925	      3.72582287	     -7.37604274	    -18.60546116	     17.35324420	      0.21808665	     -4.34329765	      0.00000000	      5.53669953	     -5.43665467	     -6.15177468	     12.99314593	      0.92730540	     10.29060170	      0.00000000	      1.25940286	     -7.28038208	      8.84466610	    132.09412834	     -5.00711839	     11.28395993	     31.39841973	    104.15783912	    135.36208528	     11.76356666	     25.48114695	     63.89727013	     93.86669642
      4.55000000	     -5.75866729	     -0.35541324	      3.47940686	      1.79131822	      0.92932211	     -0.05354746	      3.70276645	     -7.06099816	    -19.34690088	     14.99243205	     -3.61882553	     -4.04785048	      0.00000000	      5.48688371	     -5.18361107	     -5.33085502	     10.29912335	     -2.47462114	     10.09998533	      0.00000000	      1.32419528	     -8.05643155	      9.85446804	    141.56430256	     -5.92045482	     16.72951766	     18.16619317	    103.32212953	    140.51254652	     13.83945913	     26.27172407	     61.18802852	     92.91612747
      4.56666670	     -6.99335584	     -0.63057392	      3.68042631	      1.79346576	      0.93133802	     -0.04985414	      4.26591988	     -6.47795876	    -19.33221551	     12.99273634	     -6.99100786	     -3.85247641	      0.00000000	      6.10995056	     -5.20005586	     -4.73917140	      8.25738621	     -6.09302830	      8.84292408	      0.00000000	      2.01863477	     -8.35590938	     12.29851246	    150.86587946	     -6.70583729	     55.24088658	      5.83570415	     59.18881014	    144.79262162	     15.13536585	     27.12807984	     59.17623075	     85.77132439
      4.58333330	     -7.85540801	     -0.84278011	      4.10044417	      1.79577628	      0.93549234	     -0.04686539	      4.43807729	     -5.93022984	    -19.50836859	     11.17151172	    -10.59114365	     -4.23510592	      0.00000000	      6.48621422	     -5.24125083	     -4.15042775	      6.43869135	     -9.47539529	      7.82633244	      0.00000000	      2.42991492	     -8.94919329	     12.58183761	    155.00480384	     -6.79686251	     55.76262433	      4.55136440	     59.23147450	    148.81900406	     16.03207845	     27.92206290	     56.64733292	     86.21331162
      4.60000000	     -8.59830055	     -1.04755368	      4.62010833	      1.79805598	      0.93955192	     -0.04501225	      4.64910529	     -5.46143411	    -19.82779931	      9.70245234	    -13.91575874	     -4.31813767	      0.00000000	      7.04111967	     -5.33002267	     -3.60389762	      5.13348311	    -12.57672916	      6.79786468	      0.00000000	      2.80092098	     -9.31935020	     12.31560502	    158.12776922	     -6.48320470	     56.48231696	      5.12632308	     59.34578319	    151.70659937	     16.13269057	     28.57963200	     55.38918947	     86.61591064
